# xmcd
#
# Track frame offsets:
#	150
#	13609
#	30688
#	44130
#	64260
#	79584
#	92795
#	104793
#	118809
#	132940
#	147062
#	163726
#	177855
#	197917
#	211245
#	225118
#
# Disc length: 3159 seconds
#
# Revision: 2
# Processed by: cddbd v1.4PL0 Copyright (c) Steve Scherf et al.
# Submitted via: EasyCDDAExtractor 5.0.6
#
DISCID=e00c5510
DTITLE=Daniel - Meu reino encantado 2
DYEAR=1900
DGENRE=Country
TTITLE0=Encanto da natureza
TTITLE1=Mundo velho
TTITLE2=Paixão dupla
TTITLE3=Pagode em Brasília na praça tudo certo
TTITLE4=Rolinha cabloca
TTITLE5=Versos aos pés do homem
TTITLE6=Moradia
TTITLE7=Cobra venenosa
TTITLE8=Pra tudo se dá um jeito
TTITLE9=Cabelo loiro
TTITLE10=Consagração
TTITLE11=Viúva rica
TTITLE12=Travessia do araguaia
TTITLE13=Tudo é beleza
TTITLE14=Minha vida
TTITLE15=Minas gerais
EXTD=
EXTT0=
EXTT1=
EXTT2=
EXTT3=
EXTT4=
EXTT5=
EXTT6=
EXTT7=
EXTT8=
EXTT9=
EXTT10=
EXTT11=
EXTT12=
EXTT13=
EXTT14=
EXTT15=
PLAYORDER=
